<svg width="87" height="24" viewBox="0 0 87 24" fill="none" xmlns="http://www.w3.org/2000/svg">
<path d="M13.791 10.785C13.7679 8.22284 15.8904 6.97636 15.9874 6.91832C14.7854 5.16704 12.9223 4.92776 12.2676 4.90868C10.7029 4.74413 9.18502 5.84434 8.38792 5.84434C7.57491 5.84434 6.34744 4.92458 5.02451 4.95161C3.32212 4.97784 1.72951 5.96279 0.856043 7.49228C-0.946579 10.6109 0.397831 15.1938 2.12488 17.7146C2.9888 18.9491 3.9983 20.3276 5.31964 20.2791C6.61234 20.2258 7.09522 19.4555 8.65521 19.4555C10.2009 19.4555 10.6543 20.2791 12.0019 20.2481C13.3893 20.2258 14.2628 19.008 15.0964 17.7623C16.0948 16.3473 16.4957 14.9537 16.5117 14.8822C16.479 14.871 13.8173 13.8559 13.791 10.785Z" fill="white"/>
<path d="M11.2452 3.25056C11.9405 2.38168 12.4162 1.19958 12.2841 0C11.2778 0.0445174 10.0193 0.695584 9.2946 1.54539C8.65342 2.29424 8.08066 3.52164 8.22862 4.67592C9.35904 4.76018 10.5197 4.10593 11.2452 3.25056Z" fill="white"/>
<path d="M32.4991 20.1028H30.6925L29.7029 16.9953H26.2631L25.3204 20.1028H23.5615L26.9695 9.52356H29.0744L32.4991 20.1028ZM29.4045 15.6916L28.5096 12.9291C28.4149 12.6469 28.2375 11.9824 27.9758 10.9362H27.944C27.8398 11.3861 27.6719 12.0507 27.4412 12.9291L26.5622 15.6916H29.4045Z" fill="white"/>
<path d="M41.2632 16.1949C41.2632 17.4923 40.9123 18.5178 40.2107 19.2706C39.5823 19.9407 38.8019 20.2754 37.8703 20.2754C36.8648 20.2754 36.1425 19.9145 35.7026 19.1927H35.6707V23.2112H33.9747V14.9858C33.9747 14.1702 33.9532 13.3331 33.9119 12.4745H35.4034L35.4981 13.6837H35.5299C36.0955 12.7726 36.9539 12.3179 38.1058 12.3179C39.0063 12.3179 39.7581 12.6733 40.3595 13.3848C40.9625 14.097 41.2632 15.0335 41.2632 16.1949ZM39.5353 16.2569C39.5353 15.5144 39.3683 14.9023 39.0326 14.4206C38.6658 13.9182 38.1734 13.667 37.5561 13.667C37.1377 13.667 36.7574 13.8069 36.4177 14.0827C36.0772 14.361 35.8545 14.7243 35.7503 15.1742C35.6978 15.3841 35.6715 15.5558 35.6715 15.6909V16.9628C35.6715 17.5177 35.8418 17.9859 36.1822 18.3683C36.5227 18.7507 36.965 18.9415 37.5092 18.9415C38.1479 18.9415 38.6451 18.695 39.0007 18.2038C39.3571 17.7117 39.5353 17.063 39.5353 16.2569Z" fill="white"/>
<path d="M50.0431 16.1949C50.0431 17.4923 49.6923 18.5178 48.9899 19.2706C48.3622 19.9407 47.5818 20.2754 46.6503 20.2754C45.6448 20.2754 44.9224 19.9145 44.4833 19.1927H44.4515V23.2112H42.7555V14.9858C42.7555 14.1702 42.734 13.3331 42.6926 12.4745H44.1842L44.2789 13.6837H44.3107C44.8755 12.7726 45.7339 12.3179 46.8866 12.3179C47.7863 12.3179 48.538 12.6733 49.141 13.3848C49.7416 14.097 50.0431 15.0335 50.0431 16.1949ZM48.3153 16.2569C48.3153 15.5144 48.1474 14.9023 47.8117 14.4206C47.445 13.9182 46.9542 13.667 46.3361 13.667C45.9168 13.667 45.5374 13.8069 45.1969 14.0827C44.8564 14.361 44.6345 14.7243 44.5303 15.1742C44.4785 15.3841 44.4515 15.5558 44.4515 15.6909V16.9628C44.4515 17.5177 44.6217 17.9859 44.9606 18.3683C45.3011 18.7499 45.7434 18.9415 46.2891 18.9415C46.9279 18.9415 47.4251 18.695 47.7807 18.2038C48.1371 17.7117 48.3153 17.063 48.3153 16.2569Z" fill="white"/>
<path d="M59.8597 17.1357C59.8597 18.0356 59.5471 18.7678 58.9194 19.333C58.2297 19.9506 57.2695 20.2591 56.0357 20.2591C54.8965 20.2591 53.9833 20.0397 53.292 19.6001L53.685 18.1874C54.4296 18.6374 55.2466 18.8631 56.1367 18.8631C56.7755 18.8631 57.2727 18.7185 57.6299 18.4307C57.9855 18.1429 58.1629 17.7566 58.1629 17.2748C58.1629 16.8456 58.0165 16.4839 57.723 16.1905C57.431 15.8972 56.9434 15.6245 56.2624 15.3725C54.4089 14.6817 53.4829 13.6697 53.4829 12.339C53.4829 11.4693 53.8075 10.7562 54.4574 10.2013C55.105 9.64566 55.9689 9.36823 57.0492 9.36823C58.0125 9.36823 58.8128 9.53596 59.4516 9.87064L59.0276 11.2523C58.431 10.9279 57.7564 10.7658 57.0015 10.7658C56.4048 10.7658 55.9387 10.9128 55.6045 11.2054C55.3221 11.4669 55.1805 11.7857 55.1805 12.1633C55.1805 12.5814 55.342 12.9272 55.6666 13.1991C55.949 13.4503 56.4621 13.7222 57.2067 14.0155C58.1176 14.382 58.7866 14.8105 59.2169 15.3018C59.6457 15.7914 59.8597 16.4044 59.8597 17.1357Z" fill="white"/>
<path d="M65.4673 13.7449H63.5979V17.4486C63.5979 18.3906 63.9272 18.8612 64.5875 18.8612C64.8906 18.8612 65.1419 18.835 65.3408 18.7825L65.3878 20.0696C65.0536 20.1944 64.6137 20.2572 64.0688 20.2572C63.399 20.2572 62.8755 20.0529 62.4977 19.6451C62.1214 19.2365 61.9321 18.5512 61.9321 17.5885V13.7433H60.8184V12.4714H61.9321V11.0747L63.5979 10.5723V12.4714H65.4673V13.7449Z" fill="white"/>
<path d="M73.902 16.2265C73.902 17.399 73.5663 18.3617 72.8965 19.1145C72.1941 19.8896 71.2617 20.276 70.0995 20.276C68.9794 20.276 68.0877 19.9047 67.4226 19.1622C66.7576 18.4197 66.425 17.4825 66.425 16.3529C66.425 15.1708 66.7671 14.2025 67.4536 13.4497C68.1386 12.6961 69.063 12.3193 70.2252 12.3193C71.3453 12.3193 72.2466 12.6905 72.9267 13.4338C73.5775 14.1548 73.902 15.0857 73.902 16.2265ZM72.1424 16.2813C72.1424 15.5778 71.992 14.9744 71.6873 14.4712C71.3317 13.8623 70.8234 13.5586 70.1647 13.5586C69.483 13.5586 68.9651 13.8631 68.6095 14.4712C68.3048 14.9752 68.1545 15.5881 68.1545 16.3131C68.1545 17.0167 68.3048 17.62 68.6095 18.1224C68.9762 18.7314 69.4886 19.035 70.1496 19.035C70.7972 19.035 71.3055 18.725 71.6722 18.1065C71.9849 17.5938 72.1424 16.9841 72.1424 16.2813Z" fill="white"/>
<path d="M79.4152 13.9651C79.2473 13.9341 79.0684 13.9182 78.8806 13.9182C78.284 13.9182 77.8226 14.1431 77.498 14.5939C77.2156 14.9914 77.074 15.4938 77.074 16.1003V20.1029H75.3788L75.3947 14.8769C75.3947 13.9977 75.3732 13.1972 75.3311 12.4753H76.8083L76.8704 13.9349H76.9173C77.0963 13.4333 77.3787 13.0294 77.7653 12.7265C78.1432 12.4539 78.5513 12.3179 78.9912 12.3179C79.1479 12.3179 79.2895 12.3291 79.4152 12.3489V13.9651Z" fill="white"/>
<path d="M87.0002 15.9275C87.0002 16.2312 86.9803 16.4872 86.9381 16.6963H81.85C81.8699 17.4499 82.1157 18.0262 82.5883 18.4237C83.0171 18.779 83.5715 18.9571 84.2525 18.9571C85.0058 18.9571 85.6931 18.8371 86.3113 18.5962L86.577 19.7727C85.8546 20.0875 85.0018 20.2441 84.0178 20.2441C82.8341 20.2441 81.9049 19.8959 81.2287 19.2004C80.5542 18.5048 80.2161 17.5707 80.2161 16.3989C80.2161 15.2486 80.5303 14.2907 81.1595 13.5268C81.8182 12.7112 82.7084 12.3033 83.8285 12.3033C84.9287 12.3033 85.7616 12.7112 86.3272 13.5268C86.775 14.1747 87.0002 14.976 87.0002 15.9275ZM85.3829 15.4879C85.394 14.9855 85.2835 14.5515 85.0536 14.185C84.76 13.7136 84.309 13.4783 83.702 13.4783C83.1475 13.4783 82.6965 13.708 82.352 14.1691C82.0696 14.5356 81.9017 14.9752 81.85 15.4871L85.3829 15.4879Z" fill="white"/>
<path d="M28.8437 3.01554C28.8437 3.9512 28.5629 4.65552 28.002 5.12852C27.4826 5.56495 26.7443 5.78356 25.7881 5.78356C25.314 5.78356 24.9083 5.76289 24.5686 5.72156V0.609212C25.0117 0.537666 25.489 0.501099 26.0045 0.501099C26.9154 0.501099 27.6019 0.699042 28.0649 1.09493C28.5835 1.54249 28.8437 2.18242 28.8437 3.01554ZM27.9646 3.03859C27.9646 2.43204 27.8039 1.96699 27.4826 1.64265C27.1612 1.31911 26.6918 1.15693 26.0737 1.15693C25.8112 1.15693 25.5877 1.17442 25.4023 1.21099V5.09752C25.5049 5.11342 25.6927 5.12057 25.9655 5.12057C26.6035 5.12057 27.0959 4.9433 27.4428 4.58875C27.7896 4.2342 27.9646 3.71748 27.9646 3.03859Z" fill="white"/>
<path d="M33.5049 3.83259C33.5049 4.40893 33.3402 4.88113 33.0109 5.25158C32.6656 5.63237 32.2082 5.82236 31.637 5.82236C31.0865 5.82236 30.6482 5.64032 30.3213 5.27464C29.9951 4.90975 29.832 4.44948 29.832 3.8946C29.832 3.31428 29.9999 2.8381 30.3372 2.46845C30.6745 2.0988 31.1279 1.91357 31.6991 1.91357C32.2496 1.91357 32.6919 2.09562 33.0268 2.4605C33.345 2.81505 33.5049 3.27294 33.5049 3.83259ZM32.6402 3.85962C32.6402 3.51382 32.5654 3.2173 32.4166 2.97007C32.2416 2.67116 31.9926 2.52171 31.6689 2.52171C31.334 2.52171 31.0794 2.67116 30.9044 2.97007C30.7548 3.2173 30.6808 3.51859 30.6808 3.87472C30.6808 4.22053 30.7556 4.51705 30.9044 4.76428C31.085 5.06318 31.3363 5.21263 31.6609 5.21263C31.9791 5.21263 32.2289 5.06079 32.4087 4.75633C32.563 4.50433 32.6402 4.20542 32.6402 3.85962Z" fill="white"/>
<path d="M39.7544 1.98926L38.581 5.73667H37.8173L37.3313 4.1094C37.2079 3.70318 37.1077 3.29934 37.0298 2.89868H37.0146C36.9422 3.31047 36.842 3.71351 36.7131 4.1094L36.1969 5.73667H35.4244L34.321 1.98926H35.1778L35.6018 3.77075C35.7044 4.19207 35.7888 4.59352 35.8564 4.97351H35.8715C35.9335 4.6603 36.0362 4.26123 36.1809 3.7787L36.7131 1.99005H37.3925L37.9024 3.74054C38.0257 4.16743 38.126 4.57842 38.2031 4.97431H38.2262C38.2827 4.58876 38.3678 4.17776 38.4808 3.74054L38.9358 1.99005H39.7544V1.98926Z" fill="white"/>
<path d="M44.0761 5.73706H43.2424V3.59069C43.2424 2.92928 42.991 2.59858 42.4867 2.59858C42.2393 2.59858 42.0396 2.68921 41.8845 2.87125C41.7309 3.0533 41.653 3.26793 41.653 3.51358V5.73627H40.8193V3.06045C40.8193 2.73134 40.809 2.37441 40.7891 1.98806H41.5217L41.5607 2.57394H41.5838C41.6808 2.3919 41.8256 2.24165 42.0157 2.12161C42.2417 1.9817 42.4946 1.91095 42.7715 1.91095C43.1215 1.91095 43.4126 2.02383 43.6441 2.25039C43.9321 2.52783 44.0761 2.942 44.0761 3.49211V5.73706Z" fill="white"/>
<path d="M46.3751 5.73704H45.5422V0.270142H46.3751V5.73704Z" fill="white"/>
<path d="M51.2835 3.83259C51.2835 4.40893 51.1188 4.88113 50.7895 5.25158C50.4442 5.63237 49.986 5.82236 49.4156 5.82236C48.8643 5.82236 48.426 5.64032 48.0998 5.27464C47.7737 4.90975 47.6106 4.44948 47.6106 3.8946C47.6106 3.31428 47.7784 2.8381 48.1157 2.46845C48.453 2.0988 48.9065 1.91357 49.4769 1.91357C50.0281 1.91357 50.4697 2.09562 50.8054 2.4605C51.1236 2.81505 51.2835 3.27294 51.2835 3.83259ZM50.4179 3.85962C50.4179 3.51382 50.3432 3.2173 50.1944 2.97007C50.0202 2.67116 49.7704 2.52171 49.4474 2.52171C49.1117 2.52171 48.8572 2.67116 48.6829 2.97007C48.5334 3.2173 48.4594 3.51859 48.4594 3.87472C48.4594 4.22053 48.5342 4.51705 48.6829 4.76428C48.8635 5.06318 49.1149 5.21263 49.4395 5.21263C49.7577 5.21263 50.0067 5.06079 50.1865 4.75633C50.3416 4.50433 50.4179 4.20542 50.4179 3.85962Z" fill="white"/>
<path d="M55.3184 5.7373H54.5698L54.5077 5.30564H54.4847C54.2285 5.64986 53.8634 5.82236 53.3893 5.82236C53.0353 5.82236 52.7489 5.70868 52.5333 5.48291C52.3376 5.27782 52.2397 5.02264 52.2397 4.71976C52.2397 4.26187 52.4307 3.91288 52.8149 3.67122C53.1983 3.42955 53.7377 3.3111 54.4322 3.31667V3.24671C54.4322 2.75304 54.1728 2.50661 53.6534 2.50661C53.2835 2.50661 52.9573 2.59962 52.6757 2.78405L52.5062 2.23712C52.8547 2.02169 53.285 1.91357 53.7926 1.91357C54.7726 1.91357 55.2643 2.43029 55.2643 3.46373V4.84377C55.2643 5.2182 55.2826 5.5163 55.3184 5.7373ZM54.4528 4.44948V3.87154C53.5332 3.85565 53.0734 4.10765 53.0734 4.62675C53.0734 4.82231 53.1259 4.96858 53.2333 5.06636C53.3407 5.16414 53.4776 5.21263 53.6406 5.21263C53.8236 5.21263 53.9946 5.1546 54.1506 5.03933C54.3073 4.92327 54.4035 4.7762 54.4393 4.59575C54.4481 4.5552 54.4528 4.50592 54.4528 4.44948Z" fill="white"/>
<path d="M60.0556 5.73703H59.3158L59.2768 5.13525H59.2537C59.0175 5.59315 58.615 5.82209 58.0493 5.82209C57.5975 5.82209 57.2212 5.64482 56.9229 5.29027C56.6246 4.93572 56.4758 4.47544 56.4758 3.91023C56.4758 3.30368 56.6373 2.8124 56.9619 2.43718C57.2761 2.0874 57.6611 1.91251 58.1193 1.91251C58.6229 1.91251 58.9753 2.08184 59.1758 2.42128H59.1917V0.270142H60.0262V4.72744C60.0262 5.09233 60.0357 5.42859 60.0556 5.73703ZM59.1917 4.15667V3.53183C59.1917 3.42372 59.1837 3.33628 59.1686 3.2695C59.1217 3.06917 59.0207 2.90064 58.8671 2.7647C58.712 2.62877 58.5251 2.5604 58.3095 2.5604C57.9984 2.5604 57.755 2.68362 57.576 2.93085C57.3986 3.17808 57.3087 3.49368 57.3087 3.87923C57.3087 4.24968 57.3938 4.55017 57.5649 4.7815C57.7455 5.02794 57.9889 5.15115 58.2936 5.15115C58.5672 5.15115 58.786 5.0486 58.9522 4.84271C59.1129 4.65272 59.1917 4.42377 59.1917 4.15667Z" fill="white"/>
<path d="M67.1858 3.83259C67.1858 4.40893 67.0211 4.88113 66.6918 5.25158C66.3465 5.63237 65.8899 5.82236 65.318 5.82236C64.7683 5.82236 64.3299 5.64032 64.0022 5.27464C63.676 4.90975 63.5129 4.44948 63.5129 3.8946C63.5129 3.31428 63.6808 2.8381 64.0181 2.46845C64.3554 2.0988 64.8088 1.91357 65.3808 1.91357C65.9305 1.91357 66.3736 2.09562 66.7077 2.4605C67.0259 2.81505 67.1858 3.27294 67.1858 3.83259ZM66.3219 3.85962C66.3219 3.51382 66.2471 3.2173 66.0983 2.97007C65.9225 2.67116 65.6743 2.52171 65.3498 2.52171C65.0157 2.52171 64.7611 2.67116 64.5853 2.97007C64.4357 3.2173 64.3617 3.51859 64.3617 3.87472C64.3617 4.22053 64.4365 4.51705 64.5853 4.76428C64.7659 5.06318 65.0172 5.21263 65.3418 5.21263C65.66 5.21263 65.9106 5.06079 66.0904 4.75633C66.2439 4.50433 66.3219 4.20542 66.3219 3.85962Z" fill="white"/>
<path d="M71.6686 5.73706H70.8357V3.59069C70.8357 2.92928 70.5843 2.59858 70.0791 2.59858C69.8317 2.59858 69.6321 2.68921 69.4777 2.87125C69.3234 3.0533 69.2462 3.26793 69.2462 3.51358V5.73627H68.4118V3.06045C68.4118 2.73134 68.4022 2.37441 68.3823 1.98806H69.1142L69.1532 2.57394H69.1762C69.2741 2.3919 69.4189 2.24165 69.6082 2.12161C69.8349 1.9817 70.0871 1.91095 70.3647 1.91095C70.714 1.91095 71.0051 2.02383 71.2366 2.25039C71.5254 2.52783 71.6686 2.942 71.6686 3.49211V5.73706Z" fill="white"/>
<path d="M77.279 2.61334H76.361V4.43379C76.361 4.89645 76.5241 5.12778 76.8471 5.12778C76.9966 5.12778 77.1207 5.11506 77.2186 5.08883L77.24 5.72082C77.0754 5.78282 76.859 5.81383 76.5925 5.81383C76.2632 5.81383 76.007 5.71366 75.8216 5.51333C75.6355 5.31301 75.5432 4.97594 75.5432 4.50295V2.61334H74.9951V1.98931H75.5432V1.30247L76.3602 1.05603V1.98851H77.2782L77.279 2.61334Z" fill="white"/>
<path d="M81.6926 5.73704H80.8581V3.60656C80.8581 2.93483 80.6067 2.59856 80.1032 2.59856C79.7166 2.59856 79.4525 2.79332 79.3077 3.18285C79.283 3.26473 79.2687 3.3649 79.2687 3.48255V5.73624H78.4358V0.270142H79.2687V2.5286H79.2846C79.5471 2.11761 79.9234 1.91251 80.411 1.91251C80.7563 1.91251 81.0419 2.0254 81.2686 2.25196C81.551 2.53417 81.6926 2.9539 81.6926 3.50878V5.73704Z" fill="white"/>
<path d="M86.2451 3.68554C86.2451 3.83499 86.234 3.96059 86.2141 4.06314H83.7138C83.7249 4.43359 83.8443 4.7158 84.0758 4.91136C84.2874 5.08625 84.5602 5.17369 84.8943 5.17369C85.2643 5.17369 85.6015 5.11487 85.9054 4.99642L86.0359 5.57514C85.6803 5.72936 85.2619 5.80648 84.7774 5.80648C84.1967 5.80648 83.7393 5.63556 83.4083 5.29373C83.0758 4.9519 82.9111 4.49321 82.9111 3.91767C82.9111 3.35245 83.0647 2.88184 83.3741 2.50662C83.6971 2.10597 84.1338 1.90564 84.6851 1.90564C85.2245 1.90564 85.6342 2.10597 85.911 2.50662C86.1345 2.82461 86.2451 3.21811 86.2451 3.68554ZM85.4496 3.47011C85.456 3.22288 85.4011 3.00983 85.2881 2.83017C85.1433 2.59884 84.923 2.48278 84.6247 2.48278C84.3526 2.48278 84.1306 2.59566 83.9612 2.82222C83.8228 3.00268 83.7409 3.21811 83.7138 3.47011H85.4496Z" fill="white"/>
</svg>
